<svg width="104" height="39" viewBox="0 0 104 39" fill="none" xmlns="http://www.w3.org/2000/svg">
<path d="M0.824609 38.05C1.82461 33.3833 2.75794 28.85 3.62461 24.45C3.95794 22.55 4.30794 20.5833 4.67461 18.55C5.04128 16.5167 5.37461 14.5 5.67461 12.5C6.00794 10.5 6.29128 8.56666 6.52461 6.7C6.79128 4.8 6.99128 3.08333 7.12461 1.55C7.89128 1.61666 8.75794 1.68333 9.72461 1.75C10.6913 1.78333 11.5913 1.83333 12.4246 1.9C13.4246 1.96666 14.4246 2 15.4246 2C15.3913 2.13333 15.3413 2.38333 15.2746 2.75C15.2079 3.11667 15.1246 3.56667 15.0246 4.1C14.9246 4.6 14.8079 5.16666 14.6746 5.8C14.5746 6.43333 14.4579 7.06667 14.3246 7.7C14.0579 9.16667 13.7579 10.8167 13.4246 12.65L13.7246 12.6C14.0579 12.0667 14.5246 11.3333 15.1246 10.4C15.7579 9.43333 16.4079 8.41667 17.0746 7.35C17.7413 6.28333 18.3913 5.26666 19.0246 4.3C19.6579 3.3 20.1913 2.45 20.6246 1.75C22.2913 1.61667 23.9579 1.46667 25.6246 1.3C27.2913 1.13333 28.9579 0.916665 30.6246 0.649998C29.0579 2.75 27.5413 4.81667 26.0746 6.85C25.4413 7.71667 24.7913 8.61667 24.1246 9.55C23.4913 10.4833 22.8579 11.4 22.2246 12.3C21.5913 13.2 20.9913 14.0667 20.4246 14.9C19.8913 15.7333 19.4079 16.5 18.9746 17.2C19.7079 20.5667 20.5746 23.8167 21.5746 26.95C22.5746 30.0833 23.5913 33.2833 24.6246 36.55C23.8579 36.5167 23.0746 36.5 22.2746 36.5C21.4746 36.4667 20.6913 36.45 19.9246 36.45C18.9579 36.45 18.0246 36.4667 17.1246 36.5C16.2246 36.5 15.2913 36.5167 14.3246 36.55C14.0246 34.3833 13.6913 32.1167 13.3246 29.75C12.9913 27.35 12.6746 25.0667 12.3746 22.9L11.4746 23.95C11.2413 24.95 10.9746 26.1833 10.6746 27.65C10.4079 29.1167 10.1413 30.5333 9.87461 31.9C9.57461 33.5 9.25794 35.15 8.92461 36.85L0.824609 38.05ZM26.5203 38.45C26.9536 33.7833 27.3536 29.2 27.7203 24.7C27.887 22.8333 28.037 20.8667 28.1703 18.8C28.337 16.7333 28.4703 14.7 28.5703 12.7C28.7036 10.6667 28.8036 8.71667 28.8703 6.85C28.937 4.95 28.987 3.21667 29.0203 1.65C29.8203 1.65 30.6703 1.63333 31.5703 1.6C32.5036 1.56666 33.337 1.53333 34.0703 1.5C34.837 1.46667 35.487 1.43333 36.0203 1.4C36.5536 1.33333 36.8203 1.3 36.8203 1.3C36.4536 5.16667 36.137 8.35 35.8703 10.85C35.6036 13.3167 35.387 15.3333 35.2203 16.9C35.087 18.4333 34.9536 19.9167 34.8203 21.35C34.7203 22.7833 34.6036 24.1167 34.4703 25.35C34.337 26.5833 34.2203 27.6333 34.1203 28.5H35.0203L40.6203 1.9C41.5203 1.86666 42.437 1.81666 43.3703 1.75C44.2036 1.68333 45.0703 1.63333 45.9703 1.6C46.9036 1.56666 47.7536 1.5 48.5203 1.4C48.0536 2.86667 47.5703 4.48333 47.0703 6.25C46.6036 8.01667 46.1036 9.85 45.5703 11.75C45.0703 13.65 44.5703 15.5833 44.0703 17.55C43.6036 19.5167 43.137 21.4167 42.6703 23.25C41.6036 27.55 40.537 31.9667 39.4703 36.5L26.5203 38.45ZM50.4156 37C50.1156 37 49.5323 37.05 48.6656 37.15C47.799 37.2167 46.899 37.3167 45.9656 37.45C45.0323 37.55 44.1823 37.65 43.4156 37.75C42.6823 37.85 42.2823 37.9167 42.2156 37.95C42.6156 36.5167 43.0156 34.9333 43.4156 33.2C43.8156 31.4333 44.2156 29.6 44.6156 27.7C45.049 25.7667 45.449 23.8167 45.8156 21.85C46.2156 19.8833 46.599 17.9833 46.9656 16.15C47.799 11.8833 48.6156 7.5 49.4156 3L57.2156 1.75C56.349 6.21667 55.4823 10.6 54.6156 14.9C54.249 16.7333 53.8656 18.6333 53.4656 20.6C53.099 22.5667 52.7323 24.5167 52.3656 26.45C52.0323 28.3833 51.6823 30.2667 51.3156 32.1C50.9823 33.9 50.6823 35.5333 50.4156 37ZM56.7813 38.05C57.5479 34.3833 58.2813 30.7667 58.9813 27.2C59.2813 25.7 59.5813 24.1333 59.8813 22.5C60.1813 20.8667 60.4646 19.2667 60.7313 17.7C61.0313 16.1 61.2813 14.5667 61.4813 13.1C61.7146 11.6 61.9146 10.2333 62.0813 9C61.3146 8.9 60.5313 8.86667 59.7313 8.9C58.9646 8.93333 58.1979 8.83333 57.4313 8.6C57.4646 8.06667 57.4813 7.45 57.4813 6.75C57.4813 6.05 57.4979 5.35 57.5313 4.65C57.5646 3.88333 57.5979 3.06666 57.6313 2.2C58.4979 2.26666 59.3646 2.31666 60.2313 2.35C61.0979 2.38333 61.9646 2.4 62.8313 2.4C64.5313 2.4 66.1646 2.36667 67.7313 2.3C69.3313 2.2 70.7979 2.1 72.1313 2C73.4979 1.86666 74.8313 1.71666 76.1313 1.55L75.5813 4.25C75.4146 5.01667 75.2479 5.8 75.0813 6.6C74.9479 7.4 74.8146 8.08333 74.6813 8.65C73.9479 8.85 73.1979 9 72.4313 9.1C71.6979 9.16667 70.9646 9.26667 70.2313 9.4C69.9979 10.5333 69.7479 11.8 69.4813 13.2C69.2146 14.5667 68.9479 16 68.6813 17.5C68.4479 18.9667 68.2146 20.4667 67.9813 22C67.7479 23.5333 67.5146 25 67.2813 26.4C66.7479 29.7 66.2479 33.1167 65.7813 36.65L56.7813 38.05ZM70.7965 38.05L77.3465 2.5L93.1465 1.15C92.9132 1.88333 92.7132 2.63333 92.5465 3.4C92.3798 4.03333 92.2132 4.7 92.0465 5.4C91.9132 6.06667 91.7965 6.66666 91.6965 7.2C91.3632 7.23333 90.8798 7.26667 90.2465 7.3C89.6465 7.3 88.9965 7.31667 88.2965 7.35C87.5965 7.35 86.8798 7.35 86.1465 7.35C85.4465 7.35 84.8298 7.35 84.2965 7.35L82.5465 16.3C83.5798 16.2333 84.5465 16.1833 85.4465 16.15C86.1798 16.1167 86.9298 16.1 87.6965 16.1C88.4632 16.1 89.0298 16.0833 89.3965 16.05C89.2632 16.9833 89.1298 17.9 88.9965 18.8C88.8965 19.7 88.7632 20.6167 88.5965 21.55C88.2632 21.5833 87.7132 21.6167 86.9465 21.65C86.2132 21.65 85.4632 21.6667 84.6965 21.7C83.8298 21.7333 82.8798 21.7667 81.8465 21.8L80.1465 31L87.4465 29.85L86.9465 35.55L70.7965 38.05ZM101.238 36.4C100.204 36.4 99.1042 36.4333 97.9375 36.5C96.8042 36.5667 95.6542 36.6667 94.4875 36.8C93.3208 36.9333 92.1708 37.1167 91.0375 37.35C89.9375 37.55 88.9375 37.8 88.0375 38.1C88.2375 36.6 88.4708 34.9333 88.7375 33.1C89.0042 31.2667 89.3042 29.3667 89.6375 27.4C90.0042 25.4333 90.3542 23.45 90.6875 21.45C91.0542 19.45 91.4208 17.5333 91.7875 15.7C92.6208 11.3333 93.5042 6.88333 94.4375 2.35L103.188 1.2C102.288 5.06667 101.421 8.83333 100.588 12.5C100.221 14.0667 99.8542 15.7 99.4875 17.4C99.1208 19.0667 98.7708 20.7 98.4375 22.3C98.1042 23.9 97.8042 25.45 97.5375 26.95C97.2708 28.45 97.0542 29.7833 96.8875 30.95C97.7208 30.8833 98.6042 30.85 99.5375 30.85C100.504 30.8167 101.354 30.8 102.088 30.8C102.121 31.4333 102.171 32.0667 102.238 32.7C102.304 33.3 102.371 33.85 102.438 34.35C102.538 34.85 102.604 35.3 102.638 35.7C102.704 36.0667 102.754 36.3167 102.788 36.45C102.521 36.45 102.254 36.45 101.988 36.45C101.754 36.4167 101.504 36.4 101.238 36.4Z" fill="#FE8B23"/>
</svg>
